<svg viewBox="0 0 24 24" fill="none" xmlns="http://www.w3.org/2000/svg" xmlns:xlink="http://www.w3.org/1999/xlink" x="0" y="0"><path id="Vector" d="M8.09,8.091v3.231h3.23v-3.231zM12.71,8.091v3.231h3.23v-3.231zM17.32,8.091v3.231h3.23v-3.231zM17.32,12.707v3.231h3.23v-3.231zM12.71,12.707v3.231h3.23v-3.231zM12.71,17.322v3.231h3.23v-3.231zM8.09,17.322v3.231h3.23v-3.231zM8.09,12.707v3.231h3.23v-3.231zM3.48,17.322v3.231h3.23v-3.231zM3.48,12.707v3.231h3.23v-3.231zM7.38,3.562v-2.971c0,-0.153 -0.04,-0.291 -0.13,-0.411c-0.09,-0.12 -0.2,-0.18 -0.33,-0.18h-0.92c-0.12,0 -0.23,0.06 -0.32,0.18c-0.1,0.12 -0.14,0.258 -0.14,0.411v2.971c0,0.164 0.04,0.301 0.14,0.412c0.09,0.11 0.2,0.17 0.32,0.18h0.92c0.14,-0.01 0.25,-0.07 0.33,-0.18c0.09,-0.111 0.13,-0.248 0.13,-0.412zM1.85,24h20.3c0.5,0 0.93,-0.173 1.29,-0.519c0.35,-0.346 0.54,-0.769 0.56,-1.269v-18.577c0,-0.491 -0.18,-0.911 -0.55,-1.262c-0.36,-0.351 -0.8,-0.527 -1.3,-0.527h-2.77v1.385c0,0.606 -0.1,1.065 -0.3,1.377c-0.2,0.313 -0.56,0.469 -1.08,0.469h-0.92c-0.93,-0.01 -1.39,-0.62 -1.39,-1.832v-1.399h-7.38v1.399c0,1.212 -0.46,1.822 -1.39,1.832h-0.92c-0.52,0 -0.88,-0.156 -1.08,-0.469c-0.2,-0.312 -0.3,-0.771 -0.3,-1.377v-1.385h-2.77c-0.5,0 -0.94,0.176 -1.3,0.527c-0.37,0.351 -0.55,0.771 -0.55,1.262v18.577c0,0.49 0.18,0.908 0.54,1.254c0.36,0.346 0.8,0.524 1.31,0.534zM1.85,6.462h20.3v15.692h-20.3zM18.46,3.562v-2.971c0,-0.153 -0.04,-0.291 -0.14,-0.411c-0.09,-0.12 -0.2,-0.18 -0.32,-0.18h-0.92c-0.13,0 -0.24,0.06 -0.33,0.18c-0.09,0.12 -0.13,0.258 -0.13,0.411v2.971c0,0.164 0.04,0.301 0.13,0.412c0.09,0.11 0.2,0.17 0.33,0.18h0.92c0.13,-0.01 0.25,-0.07 0.33,-0.18c0.09,-0.111 0.13,-0.248 0.13,-0.412z" fill="currentColor"/></svg>